# xmcd
#
# Track frame offsets: 
#        150
#        13800
#        27150
#        39750
#        54675
#        69787
#        79958
#        94433
#        113033
#        121658
#
# Disc length: 1790 seconds
#
# Revision: 0
# Processed by: cddbd v1.5.2PL0 Copyright (c) Steve Scherf et al.
# Submitted via: ExactAudioCopy v1.3
#
DISCID=7606fc0a
DTITLE=The Rock Bottom Boys - Songs From The Bottom
DYEAR=2018
DGENRE=Bluegrass
TTITLE0=Rock Bottom Girls
TTITLE1=Can't Stop The Feeling
TTITLE2=Georgie's Hot For Teacher
TTITLE3=Help
TTITLE4=Uptown Funky Whiteboy (Live)
TTITLE5=Cover Of The Rolling Stone (Live)
TTITLE6=In The Norwegian Pines
TTITLE7=Ballad Of Henk
TTITLE8=Man Of Constant Sorrow
TTITLE9=I've Just Seen A Face
EXTD=
EXTT0=
EXTT1=
EXTT2=
EXTT3=
EXTT4=
EXTT5=
EXTT6=
EXTT7=
EXTT8=
EXTT9=
PLAYORDER=
